<?xml version="1.0" standalone="no"?>
<!DOCTYPE svg PUBLIC "-//W3C//DTD SVG 20010904//EN"
 "http://www.w3.org/TR/2001/REC-SVG-20010904/DTD/svg10.dtd">
<svg version="1.0" xmlns="http://www.w3.org/2000/svg"
 width="200.000000pt" height="200.000000pt" viewBox="0 0 200.000000 200.000000"
 preserveAspectRatio="xMidYMid meet">
<metadata>
Created by potrace 1.11, written by Peter Selinger 2001-2013
</metadata>
<g transform="translate(0.000000,200.000000) scale(0.100000,-0.100000)"
fill="#000000" stroke="none">
<path d="M851 1369 c-68 -9 -97 -27 -132 -84 -10 -16 -24 -30 -31 -31 -7 0
-25 -2 -40 -2 -49 -3 -66 -31 -64 -103 3 -74 16 -105 49 -111 52 -10 62 14 20
49 -26 21 -26 24 -10 33 21 13 22 33 2 50 -32 26 1 35 127 34 l123 0 6 -42 c6
-48 12 -57 34 -49 10 4 15 20 15 47 0 31 4 40 18 41 74 4 286 1 324 -5 25 -4
52 -14 59 -22 7 -8 8 -14 3 -13 -5 1 -19 1 -32 0 -18 -1 -23 -6 -20 -23 2 -18
10 -23 32 -23 26 0 51 -23 29 -26 -4 -1 -21 -3 -37 -5 -68 -8 -53 -55 16 -50
56 5 73 25 73 91 0 87 -46 121 -170 127 -54 3 -66 7 -113 45 -69 56 -97 69
-157 72 -27 2 -52 4 -55 5 -3 1 -34 -1 -69 -5z m46 -85 l4 -30 -68 1 c-37 1
-70 3 -72 4 -3 0 8 15 24 31 25 26 36 30 69 28 36 -3 40 -6 43 -34z m161 6
c23 -17 42 -32 42 -34 0 -2 -34 -4 -75 -4 -50 0 -75 4 -76 11 0 7 -2 22 -3 35
-4 35 59 31 112 -8z"/>
<path d="M737 1129 c-29 -17 -46 -67 -35 -100 22 -62 92 -77 140 -29 25 26 29
36 24 63 -11 60 -79 95 -129 66z m77 -61 c15 -24 -13 -53 -43 -43 -21 6 -29
43 -14 59 12 12 45 2 57 -16z"/>
<path d="M1105 1115 c-52 -51 -15 -145 57 -145 38 0 88 48 88 85 0 16 -12 38
-29 56 -38 37 -82 39 -116 4z m86 -46 c15 -28 -9 -54 -40 -44 -20 6 -29 43
-14 58 13 14 43 6 54 -14z"/>
<path d="M960 1080 c-57 -4 -65 -8 -65 -25 0 -18 7 -20 77 -21 82 -1 104 6 95
29 -7 19 -30 23 -107 17z"/>
<path d="M442 855 c-61 -26 -88 -105 -57 -165 21 -41 53 -60 103 -60 79 0 129
75 101 153 -24 67 -86 97 -147 72z m76 -61 c33 -23 27 -83 -9 -103 -24 -13
-29 -13 -53 2 -34 23 -37 78 -4 101 28 20 38 20 66 0z"/>
<path d="M913 855 c-81 -34 -93 -159 -21 -209 12 -9 42 -16 65 -16 113 0 156
152 60 214 -33 22 -69 26 -104 11z m81 -68 c17 -17 22 -31 19 -51 -5 -27 -37
-56 -60 -56 -22 0 -53 39 -53 65 0 28 32 65 55 65 9 0 26 -11 39 -23z"/>
<path d="M1182 859 c-97 -20 -126 -135 -52 -201 51 -46 159 -33 148 18 -4 19
-19 22 -66 10 -32 -7 -73 33 -67 66 5 25 39 58 61 58 8 0 23 -6 35 -12 17 -11
22 -10 34 6 26 35 -31 69 -93 55z"/>
<path d="M1790 863 c-31 -12 -50 -37 -50 -68 0 -34 25 -65 52 -65 9 0 26 -8
39 -19 l23 -18 -22 -7 c-13 -5 -31 -1 -47 10 -24 16 -27 16 -43 1 -15 -15 -14
-18 8 -42 47 -50 150 -19 150 45 0 32 -33 70 -60 70 -9 0 -25 6 -36 14 -18 14
-18 15 0 22 10 4 27 2 36 -4 14 -8 21 -7 34 7 23 25 20 30 -19 47 -37 15 -42
16 -65 7z"/>
<path d="M104 847 c-2 -7 -3 -58 -2 -113 3 -94 4 -99 26 -102 25 -4 24 -5 26
61 2 54 9 58 37 23 27 -34 38 -33 74 10 l31 36 -3 -43 c-5 -67 4 -91 30 -87
21 3 22 7 22 113 0 105 -1 110 -21 113 -16 2 -32 -11 -61 -47 l-40 -50 -38 50
c-37 48 -70 63 -81 36z"/>
<path d="M622 748 c3 -101 5 -113 22 -116 26 -5 34 13 31 69 -1 27 1 49 5 49
4 0 26 -27 50 -61 32 -46 47 -59 64 -57 20 3 21 9 24 116 l3 112 -26 0 c-14 0
-25 -3 -26 -7 -1 -5 -2 -30 -4 -58 -1 -27 -3 -52 -4 -54 0 -3 -22 23 -47 57
-34 46 -52 62 -70 62 l-25 0 3 -112z"/>
<path d="M1339 759 c-27 -56 -48 -107 -45 -115 9 -23 45 -16 58 11 9 21 18 25
55 25 37 0 45 -4 55 -25 13 -28 45 -33 55 -9 9 25 -87 214 -109 214 -13 0 -33
-30 -69 -101z m81 -24 c0 -8 -6 -12 -14 -9 -8 3 -12 12 -9 20 6 17 23 9 23
-11z"/>
<path d="M1544 847 c-2 -7 -3 -58 -2 -113 3 -97 3 -99 27 -99 18 0 25 6 28 25
7 48 43 48 63 -1 13 -31 47 -40 56 -14 4 9 1 29 -6 46 -10 23 -10 33 -1 42 20
20 13 76 -14 102 -20 21 -34 25 -85 25 -41 0 -62 -4 -66 -13z m104 -46 c8 -1
12 -10 10 -23 -4 -30 -53 -38 -60 -11 -7 27 1 42 20 38 9 -2 23 -4 30 -4z"/>
</g>
</svg>
